<svg xmlns="http://www.w3.org/2000/svg" version="1.2" viewBox="-5 0 80 80">
  <defs>
    <linearGradient id="a" x1="0%" y1="0%" x2="100%" y2="100%">
      <stop offset="0%" stop-color="#22d3dd"/>
      <stop offset="90%" stop-color="#135ffb"/>
    </linearGradient>
  </defs>
  <path fill="url(#a)" d="M35.89 1.46H1.47v32.97l7.78 7.17h22.2l-7.36-7.17V22.38h11.8c6.1 0 10.81 6.03 10.81 12.13v.04c0 6.1-4.71 11.57-10.81 11.57H1.47v21.54l33.79.13c6.22 0 12.64-1.82 17.69-4.92 9.57-5.86 16.36-16.44 16.36-28.42v.07c0-18.31-15.11-33.06-33.42-33.06"/>
  <path fill="#135ffb" d="m56.43 66.08-.91.54c-4.71 2.89-9.98 4.64-15.43 5.26l6.93 6.85H69.1c0-.01-12.67-12.65-12.67-12.65"/>
</svg>
